<svg width="62" height="62" viewBox="0 0 62 62" fill="none" xmlns="http://www.w3.org/2000/svg">
<path d="M31 41.3333L41.3334 31L31 20.6667L27.3834 24.2833L31.5167 28.4167H20.6667V33.5833H31.5167L27.3834 37.7167L31 41.3333ZM31 56.8333C27.4264 56.8333 24.0681 56.1548 20.925 54.7977C17.782 53.4423 15.0479 51.6021 12.7229 49.2771C10.3979 46.9521 8.55774 44.218 7.20235 41.075C5.84524 37.9319 5.16669 34.5736 5.16669 31C5.16669 27.4264 5.84524 24.068 7.20235 20.925C8.55774 17.7819 10.3979 15.0479 12.7229 12.7229C15.0479 10.3979 17.782 8.55685 20.925 7.19974C24.0681 5.84435 27.4264 5.16666 31 5.16666C34.5736 5.16666 37.932 5.84435 41.075 7.19974C44.2181 8.55685 46.9521 10.3979 49.2771 12.7229C51.6021 15.0479 53.4423 17.7819 54.7977 20.925C56.1548 24.068 56.8334 27.4264 56.8334 31C56.8334 34.5736 56.1548 37.9319 54.7977 41.075C53.4423 44.218 51.6021 46.9521 49.2771 49.2771C46.9521 51.6021 44.2181 53.4423 41.075 54.7977C37.932 56.1548 34.5736 56.8333 31 56.8333Z" fill="white"/>
</svg>
