<svg width="159" height="61" viewBox="0 0 159 61" fill="none" xmlns="http://www.w3.org/2000/svg">
<g filter="url(#filter0_d_2_59)">
<rect x="6" y="2" width="147" height="49" stroke="#C620A6" stroke-width="4"/>
<path d="M54.36 32.2C53.2933 32.2 52.3 32.0267 51.38 31.68C50.4733 31.32 49.68 30.82 49 30.18C48.3333 29.5267 47.8133 28.76 47.44 27.88C47.0667 27 46.88 26.04 46.88 25C46.88 23.96 47.0667 23 47.44 22.12C47.8133 21.24 48.34 20.48 49.02 19.84C49.7 19.1867 50.4933 18.6867 51.4 18.34C52.3067 17.98 53.3 17.8 54.38 17.8C55.5267 17.8 56.5733 18 57.52 18.4C58.4667 18.7867 59.2667 19.3667 59.92 20.14L58.24 21.72C57.7333 21.1733 57.1667 20.7667 56.54 20.5C55.9133 20.22 55.2333 20.08 54.5 20.08C53.7667 20.08 53.0933 20.2 52.48 20.44C51.88 20.68 51.3533 21.02 50.9 21.46C50.46 21.9 50.1133 22.42 49.86 23.02C49.62 23.62 49.5 24.28 49.5 25C49.5 25.72 49.62 26.38 49.86 26.98C50.1133 27.58 50.46 28.1 50.9 28.54C51.3533 28.98 51.88 29.32 52.48 29.56C53.0933 29.8 53.7667 29.92 54.5 29.92C55.2333 29.92 55.9133 29.7867 56.54 29.52C57.1667 29.24 57.7333 28.82 58.24 28.26L59.92 29.86C59.2667 30.62 58.4667 31.2 57.52 31.6C56.5733 32 55.52 32.2 54.36 32.2ZM62.1713 32V21.32H64.5513V24.26L64.2713 23.4C64.5913 22.68 65.0913 22.1333 65.7713 21.76C66.4646 21.3867 67.3246 21.2 68.3513 21.2V23.58C68.2446 23.5533 68.1446 23.54 68.0513 23.54C67.9579 23.5267 67.8646 23.52 67.7713 23.52C66.8246 23.52 66.0713 23.8 65.5113 24.36C64.9513 24.9067 64.6713 25.7267 64.6713 26.82V32H62.1713ZM75.3944 32.14C74.2077 32.14 73.1677 31.9067 72.2744 31.44C71.3944 30.96 70.7077 30.3067 70.2144 29.48C69.7344 28.6533 69.4944 27.7133 69.4944 26.66C69.4944 25.5933 69.7277 24.6533 70.1944 23.84C70.6744 23.0133 71.3277 22.3667 72.1544 21.9C72.9944 21.4333 73.9477 21.2 75.0144 21.2C76.0544 21.2 76.981 21.4267 77.7944 21.88C78.6077 22.3333 79.2477 22.9733 79.7144 23.8C80.181 24.6267 80.4144 25.6 80.4144 26.72C80.4144 26.8267 80.4077 26.9467 80.3944 27.08C80.3944 27.2133 80.3877 27.34 80.3744 27.46H71.4744V25.8H79.0544L78.0744 26.32C78.0877 25.7067 77.961 25.1667 77.6944 24.7C77.4277 24.2333 77.061 23.8667 76.5944 23.6C76.141 23.3333 75.6144 23.2 75.0144 23.2C74.401 23.2 73.861 23.3333 73.3944 23.6C72.941 23.8667 72.581 24.24 72.3144 24.72C72.061 25.1867 71.9344 25.74 71.9344 26.38V26.78C71.9344 27.42 72.081 27.9867 72.3744 28.48C72.6677 28.9733 73.081 29.3533 73.6144 29.62C74.1477 29.8867 74.761 30.02 75.4544 30.02C76.0544 30.02 76.5944 29.9267 77.0744 29.74C77.5544 29.5533 77.981 29.26 78.3544 28.86L79.6944 30.4C79.2144 30.96 78.6077 31.3933 77.8744 31.7C77.1544 31.9933 76.3277 32.14 75.3944 32.14ZM89.1028 32V29.84L88.9628 29.38V25.6C88.9628 24.8667 88.7428 24.3 88.3028 23.9C87.8628 23.4867 87.1961 23.28 86.3028 23.28C85.7028 23.28 85.1095 23.3733 84.5228 23.56C83.9495 23.7467 83.4628 24.0067 83.0628 24.34L82.0828 22.52C82.6561 22.08 83.3361 21.7533 84.1228 21.54C84.9228 21.3133 85.7495 21.2 86.6028 21.2C88.1495 21.2 89.3428 21.5733 90.1828 22.32C91.0361 23.0533 91.4628 24.1933 91.4628 25.74V32H89.1028ZM85.7428 32.14C84.9428 32.14 84.2428 32.0067 83.6428 31.74C83.0428 31.46 82.5761 31.08 82.2428 30.6C81.9228 30.1067 81.7628 29.5533 81.7628 28.94C81.7628 28.34 81.9028 27.8 82.1828 27.32C82.4761 26.84 82.9495 26.46 83.6028 26.18C84.2561 25.9 85.1228 25.76 86.2028 25.76H89.3028V27.42H86.3828C85.5295 27.42 84.9561 27.56 84.6628 27.84C84.3695 28.1067 84.2228 28.44 84.2228 28.84C84.2228 29.2933 84.4028 29.6533 84.7628 29.92C85.1228 30.1867 85.6228 30.32 86.2628 30.32C86.8761 30.32 87.4228 30.18 87.9028 29.9C88.3961 29.62 88.7495 29.2067 88.9628 28.66L89.3828 30.16C89.1428 30.7867 88.7095 31.2733 88.0828 31.62C87.4695 31.9667 86.6895 32.14 85.7428 32.14ZM98.6913 32.14C97.5179 32.14 96.6113 31.84 95.9712 31.24C95.3313 30.6267 95.0113 29.7267 95.0113 28.54V18.96H97.5113V28.48C97.5113 28.9867 97.6379 29.38 97.8913 29.66C98.1579 29.94 98.5246 30.08 98.9913 30.08C99.5513 30.08 100.018 29.9333 100.391 29.64L101.091 31.42C100.798 31.66 100.438 31.84 100.011 31.96C99.5846 32.08 99.1446 32.14 98.6913 32.14ZM93.2513 23.4V21.4H100.371V23.4H93.2513ZM107.816 32.14C106.63 32.14 105.59 31.9067 104.696 31.44C103.816 30.96 103.13 30.3067 102.636 29.48C102.156 28.6533 101.916 27.7133 101.916 26.66C101.916 25.5933 102.15 24.6533 102.616 23.84C103.096 23.0133 103.75 22.3667 104.576 21.9C105.416 21.4333 106.37 21.2 107.436 21.2C108.476 21.2 109.403 21.4267 110.216 21.88C111.03 22.3333 111.67 22.9733 112.136 23.8C112.603 24.6267 112.836 25.6 112.836 26.72C112.836 26.8267 112.83 26.9467 112.816 27.08C112.816 27.2133 112.81 27.34 112.796 27.46H103.896V25.8H111.476L110.496 26.32C110.51 25.7067 110.383 25.1667 110.116 24.7C109.85 24.2333 109.483 23.8667 109.016 23.6C108.563 23.3333 108.036 23.2 107.436 23.2C106.823 23.2 106.283 23.3333 105.816 23.6C105.363 23.8667 105.003 24.24 104.736 24.72C104.483 25.1867 104.356 25.74 104.356 26.38V26.78C104.356 27.42 104.503 27.9867 104.796 28.48C105.09 28.9733 105.503 29.3533 106.036 29.62C106.57 29.8867 107.183 30.02 107.876 30.02C108.476 30.02 109.016 29.9267 109.496 29.74C109.976 29.5533 110.403 29.26 110.776 28.86L112.116 30.4C111.636 30.96 111.03 31.3933 110.296 31.7C109.576 31.9933 108.75 32.14 107.816 32.14Z" fill="white"/>
</g>
<defs>
<filter id="filter0_d_2_59" x="0" y="0" width="159" height="61" filterUnits="userSpaceOnUse" color-interpolation-filters="sRGB">
<feFlood flood-opacity="0" result="BackgroundImageFix"/>
<feColorMatrix in="SourceAlpha" type="matrix" values="0 0 0 0 0 0 0 0 0 0 0 0 0 0 0 0 0 0 127 0" result="hardAlpha"/>
<feOffset dy="4"/>
<feGaussianBlur stdDeviation="2"/>
<feComposite in2="hardAlpha" operator="out"/>
<feColorMatrix type="matrix" values="0 0 0 0 1 0 0 0 0 0.926389 0 0 0 0 0.926389 0 0 0 0.25 0"/>
<feBlend mode="normal" in2="BackgroundImageFix" result="effect1_dropShadow_2_59"/>
<feBlend mode="normal" in="SourceGraphic" in2="effect1_dropShadow_2_59" result="shape"/>
</filter>
</defs>
</svg>
