<svg width="245" height="53" viewBox="0 0 245 53" fill="none" xmlns="http://www.w3.org/2000/svg">
<rect x="2" y="2" width="183" height="49" stroke="#C620A6" stroke-width="4"/>
<rect x="-1.5" y="1.5" width="55" height="50" transform="matrix(-1 0 0 1 242 0)" fill="#772E69" fill-opacity="0.3" stroke="#C620A6" stroke-width="3"/>
<path d="M32.28 25.82H39.24V27.96H32.28V25.82ZM32.48 31.82H40.38V34H29.88V20H40.1V22.18H32.48V31.82ZM41.4027 34L46.1027 27.88L46.0627 29.22L41.5827 23.32H44.3627L47.5027 27.52H46.4427L49.6027 23.32H52.3027L47.7827 29.22L47.8027 27.88L52.4827 34H49.6627L46.3627 29.54L47.4027 29.68L44.1627 34H41.4027ZM60.2475 34.14C59.3808 34.14 58.5875 33.94 57.8675 33.54C57.1608 33.14 56.5942 32.54 56.1675 31.74C55.7542 30.9267 55.5475 29.9 55.5475 28.66C55.5475 27.4067 55.7475 26.38 56.1475 25.58C56.5608 24.78 57.1208 24.1867 57.8275 23.8C58.5342 23.4 59.3408 23.2 60.2475 23.2C61.3008 23.2 62.2275 23.4267 63.0275 23.88C63.8408 24.3333 64.4808 24.9667 64.9475 25.78C65.4275 26.5933 65.6675 27.5533 65.6675 28.66C65.6675 29.7667 65.4275 30.7333 64.9475 31.56C64.4808 32.3733 63.8408 33.0067 63.0275 33.46C62.2275 33.9133 61.3008 34.14 60.2475 34.14ZM54.3275 37.88V23.32H56.7075V25.84L56.6275 28.68L56.8275 31.52V37.88H54.3275ZM59.9675 32C60.5675 32 61.1008 31.8667 61.5675 31.6C62.0475 31.3333 62.4275 30.9467 62.7075 30.44C62.9875 29.9333 63.1275 29.34 63.1275 28.66C63.1275 27.9667 62.9875 27.3733 62.7075 26.88C62.4275 26.3733 62.0475 25.9867 61.5675 25.72C61.1008 25.4533 60.5675 25.32 59.9675 25.32C59.3675 25.32 58.8275 25.4533 58.3475 25.72C57.8675 25.9867 57.4875 26.3733 57.2075 26.88C56.9275 27.3733 56.7875 27.9667 56.7875 28.66C56.7875 29.34 56.9275 29.9333 57.2075 30.44C57.4875 30.9467 57.8675 31.3333 58.3475 31.6C58.8275 31.8667 59.3675 32 59.9675 32ZM68.0384 34V19.16H70.5384V34H68.0384ZM78.6197 34.14C77.5264 34.14 76.553 33.9067 75.6997 33.44C74.8464 32.96 74.173 32.3067 73.6797 31.48C73.1864 30.6533 72.9397 29.7133 72.9397 28.66C72.9397 27.5933 73.1864 26.6533 73.6797 25.84C74.173 25.0133 74.8464 24.3667 75.6997 23.9C76.553 23.4333 77.5264 23.2 78.6197 23.2C79.7264 23.2 80.7064 23.4333 81.5597 23.9C82.4264 24.3667 83.0997 25.0067 83.5797 25.82C84.073 26.6333 84.3197 27.58 84.3197 28.66C84.3197 29.7133 84.073 30.6533 83.5797 31.48C83.0997 32.3067 82.4264 32.96 81.5597 33.44C80.7064 33.9067 79.7264 34.14 78.6197 34.14ZM78.6197 32C79.233 32 79.7797 31.8667 80.2597 31.6C80.7397 31.3333 81.113 30.9467 81.3797 30.44C81.6597 29.9333 81.7997 29.34 81.7997 28.66C81.7997 27.9667 81.6597 27.3733 81.3797 26.88C81.113 26.3733 80.7397 25.9867 80.2597 25.72C79.7797 25.4533 79.2397 25.32 78.6397 25.32C78.0264 25.32 77.4797 25.4533 76.9997 25.72C76.533 25.9867 76.1597 26.3733 75.8797 26.88C75.5997 27.3733 75.4597 27.9667 75.4597 28.66C75.4597 29.34 75.5997 29.9333 75.8797 30.44C76.1597 30.9467 76.533 31.3333 76.9997 31.6C77.4797 31.8667 78.0197 32 78.6197 32ZM86.7103 34V23.32H89.0903V26.26L88.8103 25.4C89.1303 24.68 89.6303 24.1333 90.3103 23.76C91.0036 23.3867 91.8636 23.2 92.8903 23.2V25.58C92.7836 25.5533 92.6836 25.54 92.5903 25.54C92.497 25.5267 92.4036 25.52 92.3103 25.52C91.3636 25.52 90.6103 25.8 90.0503 26.36C89.4903 26.9067 89.2103 27.7267 89.2103 28.82V34H86.7103ZM99.9334 34.14C98.7468 34.14 97.7068 33.9067 96.8134 33.44C95.9334 32.96 95.2468 32.3067 94.7534 31.48C94.2734 30.6533 94.0334 29.7133 94.0334 28.66C94.0334 27.5933 94.2668 26.6533 94.7334 25.84C95.2134 25.0133 95.8668 24.3667 96.6934 23.9C97.5334 23.4333 98.4868 23.2 99.5534 23.2C100.593 23.2 101.52 23.4267 102.333 23.88C103.147 24.3333 103.787 24.9733 104.253 25.8C104.72 26.6267 104.953 27.6 104.953 28.72C104.953 28.8267 104.947 28.9467 104.933 29.08C104.933 29.2133 104.927 29.34 104.913 29.46H96.0134V27.8H103.593L102.613 28.32C102.627 27.7067 102.5 27.1667 102.233 26.7C101.967 26.2333 101.6 25.8667 101.133 25.6C100.68 25.3333 100.153 25.2 99.5534 25.2C98.9401 25.2 98.4001 25.3333 97.9334 25.6C97.4801 25.8667 97.1201 26.24 96.8534 26.72C96.6001 27.1867 96.4734 27.74 96.4734 28.38V28.78C96.4734 29.42 96.6201 29.9867 96.9134 30.48C97.2068 30.9733 97.6201 31.3533 98.1534 31.62C98.6868 31.8867 99.3001 32.02 99.9934 32.02C100.593 32.02 101.133 31.9267 101.613 31.74C102.093 31.5533 102.52 31.26 102.893 30.86L104.233 32.4C103.753 32.96 103.147 33.3933 102.413 33.7C101.693 33.9933 100.867 34.14 99.9334 34.14ZM113.122 34V20H115.262L124.042 30.78H122.982V20H125.562V34H123.422L114.642 23.22H115.702V34H113.122ZM133.874 34.14C132.78 34.14 131.807 33.9067 130.954 33.44C130.1 32.96 129.427 32.3067 128.934 31.48C128.44 30.6533 128.194 29.7133 128.194 28.66C128.194 27.5933 128.44 26.6533 128.934 25.84C129.427 25.0133 130.1 24.3667 130.954 23.9C131.807 23.4333 132.78 23.2 133.874 23.2C134.98 23.2 135.96 23.4333 136.814 23.9C137.68 24.3667 138.354 25.0067 138.834 25.82C139.327 26.6333 139.574 27.58 139.574 28.66C139.574 29.7133 139.327 30.6533 138.834 31.48C138.354 32.3067 137.68 32.96 136.814 33.44C135.96 33.9067 134.98 34.14 133.874 34.14ZM133.874 32C134.487 32 135.034 31.8667 135.514 31.6C135.994 31.3333 136.367 30.9467 136.634 30.44C136.914 29.9333 137.054 29.34 137.054 28.66C137.054 27.9667 136.914 27.3733 136.634 26.88C136.367 26.3733 135.994 25.9867 135.514 25.72C135.034 25.4533 134.494 25.32 133.894 25.32C133.28 25.32 132.734 25.4533 132.254 25.72C131.787 25.9867 131.414 26.3733 131.134 26.88C130.854 27.3733 130.714 27.9667 130.714 28.66C130.714 29.34 130.854 29.9333 131.134 30.44C131.414 30.9467 131.787 31.3333 132.254 31.6C132.734 31.8667 133.274 32 133.874 32ZM144.031 34L140.111 23.32H142.471L145.831 32.74H144.711L148.231 23.32H150.331L153.751 32.74H152.651L156.111 23.32H158.331L154.391 34H151.991L148.871 25.66H149.611L146.431 34H144.031Z" fill="white"/>
<g clip-path="url(#clip0_104_2)">
<path d="M203 27.5C203 24.1848 204.317 21.0054 206.661 18.6612C209.005 16.317 212.185 15 215.5 15C218.815 15 221.995 16.317 224.339 18.6612C226.683 21.0054 228 24.1848 228 27.5C228 30.8152 226.683 33.9946 224.339 36.3388C221.995 38.683 218.815 40 215.5 40C212.185 40 209.005 38.683 206.661 36.3388C204.317 33.9946 203 30.8152 203 27.5ZM212.225 23.1203C212.153 23.0457 212.067 22.9862 211.971 22.9452C211.876 22.9043 211.774 22.8827 211.67 22.8818C211.566 22.8809 211.463 22.9007 211.367 22.94C211.271 22.9793 211.184 23.0373 211.111 23.1106C211.037 23.184 210.979 23.2712 210.94 23.3672C210.901 23.4632 210.881 23.5661 210.882 23.6698C210.883 23.7736 210.904 23.8761 210.945 23.9714C210.986 24.0667 211.046 24.1529 211.12 24.225L217.52 30.625H213.195C212.988 30.625 212.789 30.7073 212.643 30.8538C212.496 31.0003 212.414 31.199 212.414 31.4062C212.414 31.6135 212.496 31.8122 212.643 31.9587C212.789 32.1052 212.988 32.1875 213.195 32.1875H219.406C219.613 32.1875 219.812 32.1052 219.959 31.9587C220.105 31.8122 220.188 31.6135 220.188 31.4062V25.1953C220.188 24.9881 220.105 24.7894 219.959 24.6429C219.812 24.4964 219.613 24.4141 219.406 24.4141C219.199 24.4141 219 24.4964 218.854 24.6429C218.707 24.7894 218.625 24.9881 218.625 25.1953V29.5203L212.225 23.1203Z" fill="white"/>
</g>
<defs>
<clipPath id="clip0_104_2">
<rect width="25" height="25" fill="white" transform="translate(203 15)"/>
</clipPath>
</defs>
</svg>
