<svg width="98" height="33" viewBox="0 0 98 33" fill="none" xmlns="http://www.w3.org/2000/svg">
<rect width="98" height="33" rx="10" fill="#C620A6"/>
<path d="M28.5568 22L25.3295 10.3636H27.1761L29.4432 19.375H29.5511L31.9091 10.3636H33.7386L36.0966 19.3807H36.2045L38.4659 10.3636H40.3182L37.0852 22H35.3182L32.8693 13.2841H32.7784L30.3295 22H28.5568ZM43.4631 22.1932C42.91 22.1932 42.41 22.0909 41.9631 21.8864C41.5161 21.678 41.1619 21.3769 40.9006 20.983C40.643 20.589 40.5142 20.1061 40.5142 19.5341C40.5142 19.0417 40.6089 18.6364 40.7983 18.3182C40.9877 18 41.2434 17.7481 41.5653 17.5625C41.8873 17.3769 42.2472 17.2367 42.6449 17.142C43.0426 17.0473 43.4479 16.9754 43.8608 16.9261C44.3835 16.8655 44.8078 16.8163 45.1335 16.7784C45.4593 16.7367 45.696 16.6705 45.8438 16.5795C45.9915 16.4886 46.0653 16.3409 46.0653 16.1364V16.0966C46.0653 15.6004 45.9252 15.2159 45.6449 14.9432C45.3684 14.6705 44.9555 14.5341 44.4062 14.5341C43.8343 14.5341 43.3835 14.661 43.054 14.9148C42.7282 15.1648 42.5028 15.4432 42.3778 15.75L40.7812 15.3864C40.9706 14.8561 41.2472 14.428 41.6108 14.1023C41.9782 13.7727 42.4006 13.5341 42.8778 13.3864C43.3551 13.2348 43.857 13.1591 44.3835 13.1591C44.732 13.1591 45.1013 13.2008 45.4915 13.2841C45.8854 13.3636 46.2528 13.5114 46.5938 13.7273C46.9384 13.9432 47.2206 14.2519 47.4403 14.6534C47.66 15.0511 47.7699 15.5682 47.7699 16.2045V22H46.1108V20.8068H46.0426C45.9328 21.0265 45.768 21.2424 45.5483 21.4545C45.3286 21.6667 45.0464 21.8428 44.7017 21.983C44.357 22.1231 43.9441 22.1932 43.4631 22.1932ZM43.8324 20.8295C44.3021 20.8295 44.7036 20.7367 45.0369 20.5511C45.3741 20.3655 45.6297 20.1231 45.804 19.8239C45.982 19.5208 46.071 19.197 46.071 18.8523V17.7273C46.0104 17.7879 45.893 17.8447 45.7188 17.8977C45.5483 17.947 45.3532 17.9905 45.1335 18.0284C44.9138 18.0625 44.6998 18.0947 44.4915 18.125C44.2831 18.1515 44.1089 18.1742 43.9688 18.1932C43.6392 18.2348 43.3381 18.3049 43.0653 18.4034C42.7964 18.5019 42.5805 18.6439 42.4176 18.8295C42.2585 19.0114 42.179 19.2538 42.179 19.5568C42.179 19.9773 42.3343 20.2955 42.6449 20.5114C42.9555 20.7235 43.3513 20.8295 43.8324 20.8295ZM51.7315 10.3636V22H50.0327V10.3636H51.7315ZM55.7159 10.3636V22H54.017V10.3636H55.7159ZM61.7628 22.1761C60.9029 22.1761 60.1624 21.9924 59.5412 21.625C58.9238 21.2538 58.4465 20.733 58.1094 20.0625C57.776 19.3883 57.6094 18.5985 57.6094 17.6932C57.6094 16.7992 57.776 16.0114 58.1094 15.3295C58.4465 14.6477 58.9162 14.1155 59.5185 13.733C60.1245 13.3504 60.8329 13.1591 61.6435 13.1591C62.1359 13.1591 62.6132 13.2405 63.0753 13.4034C63.5374 13.5663 63.9522 13.822 64.3196 14.1705C64.687 14.5189 64.9768 14.9716 65.1889 15.5284C65.401 16.0814 65.5071 16.7538 65.5071 17.5455V18.1477H58.5696V16.875H63.8423C63.8423 16.428 63.7514 16.0322 63.5696 15.6875C63.3878 15.339 63.1321 15.0644 62.8026 14.8636C62.4768 14.6629 62.0942 14.5625 61.6548 14.5625C61.1776 14.5625 60.7609 14.6799 60.4048 14.9148C60.0526 15.1458 59.7798 15.4489 59.5866 15.8239C59.3973 16.1951 59.3026 16.5985 59.3026 17.0341V18.0284C59.3026 18.6117 59.4048 19.108 59.6094 19.517C59.8177 19.9261 60.1075 20.2386 60.4787 20.4545C60.8499 20.6667 61.2836 20.7727 61.7798 20.7727C62.1018 20.7727 62.3954 20.7273 62.6605 20.6364C62.9257 20.5417 63.1548 20.4015 63.348 20.2159C63.5412 20.0303 63.6889 19.8011 63.7912 19.5284L65.3991 19.8182C65.2704 20.2917 65.0393 20.7064 64.706 21.0625C64.3764 21.4148 63.9616 21.6894 63.4616 21.8864C62.9654 22.0795 62.3991 22.1761 61.7628 22.1761ZM71.4659 13.2727V14.6364H66.6989V13.2727H71.4659ZM67.9773 11.1818H69.6761V19.4375C69.6761 19.767 69.7254 20.0152 69.8239 20.1818C69.9223 20.3447 70.0492 20.4564 70.2045 20.517C70.3636 20.5739 70.536 20.6023 70.7216 20.6023C70.858 20.6023 70.9773 20.5928 71.0795 20.5739C71.1818 20.5549 71.2614 20.5398 71.3182 20.5284L71.625 21.9318C71.5265 21.9697 71.3864 22.0076 71.2045 22.0455C71.0227 22.0871 70.7955 22.1098 70.5227 22.1136C70.0758 22.1212 69.6591 22.0417 69.2727 21.875C68.8864 21.7083 68.5739 21.4508 68.3352 21.1023C68.0966 20.7538 67.9773 20.3163 67.9773 19.7898V11.1818Z" fill="white"/>
</svg>
