<svg width="63" height="63" viewBox="0 0 63 63" fill="none" xmlns="http://www.w3.org/2000/svg">
<path d="M29.7281 40.2281C30.2094 40.7094 30.8114 40.9395 31.5341 40.9185C32.2569 40.8975 32.858 40.6455 33.3375 40.1625C33.8187 39.6812 34.0594 39.0687 34.0594 38.325C34.0594 37.5812 33.8187 36.9687 33.3375 36.4875L30.975 34.125H39.4406C40.1844 34.125 40.7969 33.8739 41.2781 33.3716C41.7594 32.8694 42 32.2455 42 31.5C42 30.7562 41.748 30.1332 41.244 29.631C40.74 29.1287 40.117 28.8767 39.375 28.875H30.975L33.4031 26.4469C33.8844 25.9656 34.1145 25.3636 34.0935 24.6409C34.0725 23.9181 33.8205 23.317 33.3375 22.8375C32.8562 22.3562 32.2437 22.1156 31.5 22.1156C30.7562 22.1156 30.1437 22.3562 29.6625 22.8375L22.8375 29.6625C22.3125 30.1875 22.05 30.8 22.05 31.5C22.05 32.2 22.3125 32.8125 22.8375 33.3375L29.7281 40.2281ZM31.5 57.75C27.8687 57.75 24.4562 57.0605 21.2625 55.6815C18.0687 54.3025 15.2906 52.4326 12.9281 50.0719C10.5656 47.7094 8.69575 44.9312 7.3185 41.7375C5.94125 38.5437 5.25175 35.1312 5.25 31.5C5.25 27.8687 5.9395 24.4562 7.3185 21.2625C8.6975 18.0687 10.5674 15.2906 12.9281 12.9281C15.2906 10.5656 18.0687 8.69575 21.2625 7.3185C24.4562 5.94125 27.8687 5.25175 31.5 5.25C35.1312 5.25 38.5437 5.9395 41.7375 7.3185C44.9312 8.6975 47.7094 10.5674 50.0719 12.9281C52.4344 15.2906 54.3051 18.0687 55.6841 21.2625C57.0631 24.4562 57.7517 27.8687 57.75 31.5C57.75 35.1312 57.0605 38.5437 55.6815 41.7375C54.3025 44.9312 52.4326 47.7094 50.0719 50.0719C47.7094 52.4344 44.9312 54.3051 41.7375 55.6841C38.5437 57.0631 35.1312 57.7517 31.5 57.75ZM31.5 52.5C37.3187 52.5 42.2739 50.4551 46.3654 46.3654C50.4569 42.2756 52.5017 37.3205 52.5 31.5C52.5 25.6812 50.4551 20.7261 46.3654 16.6346C42.2756 12.5431 37.3205 10.4982 31.5 10.5C25.6812 10.5 20.7261 12.5449 16.6346 16.6346C12.5431 20.7244 10.4982 25.6795 10.5 31.5C10.5 37.3187 12.5449 42.2739 16.6346 46.3654C20.7244 50.4569 25.6795 52.5017 31.5 52.5Z" fill="white"/>
</svg>
